<svg xmlns="http://www.w3.org/2000/svg" viewBox="0 0 1920 812">
	<linearGradient id="SVGID_1_" gradientTransform="rotate(90)">
		<stop offset="0" style="stop-color:#000000" />
		<stop offset="0.1" style="stop-color:#00000F" />
		<stop offset="0.33" style="stop-color:#00002C" />
		<stop offset="0.56" style="stop-color:#000041" />
		<stop offset="0.79" style="stop-color:#00004D" />
		<stop offset="1" style="stop-color:#000052" />
	</linearGradient>
	<linearGradient id="SVGID_2_">
		<stop offset="9.232507e-02" style="stop-color:#FDD601" />
		<stop offset="0.4392" style="stop-color:#F19209" />
		<stop offset="0.7491" style="stop-color:#E75C0F" />
		<stop offset="0.8989" style="stop-color:#E34711" />
	</linearGradient>
	<path fill="#EC4B88"
		d="M859.5,567.8c0.1,0,2.3-0.2,6.9,6s1.4,5.4,0,6s-17.2,6.8-17.2,6.8l-28.4,11.9l-21.5,8.5c0,0-16,7.1-17.2,7.7
		c-8.2,3.7-19.8,7.7-19.8,7.7L721.7,635l-50,11.9l-41.4,9.4l-48.3,7.7c0,0-28.1,3.2-36.2,3.4c-9.8,0.3-44.2,0.5-53.4,0
		c-8.5-0.5-30.8-6.7-36.2-11.1c-5.4-4.3-15.4-4.7-20.7-21.3c-4.2-13.2,0.8-19.8,1.7-24.7c1-4.9,10.6-20.3,12.9-23.8
		s11.9-16.3,17.2-22.1c5.8-6.3,21.7-24.2,29.3-31.5c29.1-27.8,47-46.8,68.1-63.8c23.7-19.1,58.7-49.5,141.3-89.3
		c13.1-6.3,99.3-39,114.6-45.1c15.3-6.1,78.7-30.4,92.2-34.9c11.6-3.8,73-28.2,88.7-33.2c14.8-4.7,74.4-22.4,86.2-26.4
		c10.6-3.6,75.5-23.9,113.7-31.5c37.4-7.4,81.7-7.7,118-8.5c27.7-0.6,48.3,2.8,61.2,8.5c12.9,5.7,24.2,19.8,19.8,42.5
		c-4.3,22.7-14.4,36.8-30.2,52.7c-15.8,15.9-51.1,48.5-67.2,62.9c-16.1,14.4-38,29.6-56.9,43.4c-18.9,13.8-45.6,26.9-63.8,35.7
		c-18.2,8.8-49.3,22.2-63.8,28.9s-62,25.9-75.8,33.2c-13.8,7.3-49,21.8-67.2,29.8c-18.2,7.9-45.7-5.1-45.7-5.1l58.6-24.7
		c0,0,87.1-37.8,102.5-46.8c15.5-9,51.5-23.9,71.5-37.4s73.3-44.2,99.9-66.3s62.3-63.8,56.9-86.7c-4.4-18.4-9.7-26.5-52.6-30.6
		c-39.3-3.8-110.9,9.1-148.2,18.7c-37.3,9.6-79.5,23.3-117.2,35.7c-37.7,12.4-104.8,37.5-152.5,53.6c-48,16.2-126.2,52.4-143,62.1
		c-14.4,8.3-93.7,54.4-121.5,81.6c-27.7,27.3-33.5,35-45.7,54.4c-17.1,27.2-16.8,26.4-19.8,40s7,20.6,22.4,26.4
		c15.4,5.8,33,7,57.7,6c26.3-1.1,64.9-5.5,95.6-11.9c29-6,22.5-5,56-12.8c32.5-7.5,45-10,58.6-14.5S859.4,567.8,859.5,567.8z" />
	<path fill="#EC4B88" d="M916.4,609c0.2,0,3.5-0.3,10.3,9.2s2.1,8.3,0,9.2S900.9,638,900.9,638l-42.5,18.4l-32.2,13.2
		c0,0-24,11-25.7,11.8c-12.2,5.7-29.6,11.8-29.6,11.8L710.5,713l-74.6,18.4l-61.8,14.5L502,757.8c0,0-42,4.9-54.1,5.3
		c-14.6,0.5-66,0.8-79.8,0c-12.7-0.7-46.1-10.4-54.1-17.1c-8-6.7-23-7.2-30.9-32.9c-6.3-20.5,1.1-30.6,2.6-38.2
		c1.4-7.6,15.8-31.4,19.3-36.9s17.7-25.2,25.7-34.2c8.6-9.7,32.4-37.4,43.8-48.7c43.4-43,70.1-72.4,101.7-98.7
		c35.4-29.5,87.7-76.6,211.1-138.2c19.5-9.7,148.3-60.3,171.2-69.8c22.9-9.4,117.5-47.1,137.7-54c17.3-5.9,109-43.6,132.6-51.3
		c22.2-7.3,111.1-34.7,128.7-40.8c15.8-5.5,112.8-37,169.9-48.7c55.8-11.4,122.1-11.9,176.3-13.2c41.4-0.9,72.1,4.4,91.4,13.2
		s36.1,30.7,29.6,65.8s-21.5,57-45,81.6c-23.6,24.6-76.4,75.1-100.4,97.4c-24,22.3-56.7,45.8-84.9,67.1
		c-28.2,21.4-68,41.7-95.2,55.3c-27.2,13.6-73.7,34.3-95.2,44.7c-21.6,10.4-92.7,40.1-113.3,51.3s-73.1,33.8-100.4,46.1
		c-27.2,12.3-68.2-7.9-68.2-7.9l87.5-38.2c0,0,130.1-58.4,153.1-72.4s76.9-37,106.8-57.9c29.9-21,109.5-68.4,149.3-102.7
		c39.8-34.3,93-98.7,84.9-134.2c-6.5-28.5-14.4-41-78.5-47.4c-58.7-5.8-165.7,14.1-221.4,29s-118.8,36-175,55.3
		c-56.3,19.2-156.6,58-227.8,82.9c-71.7,25.1-188.4,81.1-213.6,96.1c-21.6,12.8-140,84.2-181.5,126.3s-50.1,54.2-68.2,84.2
		C412.2,618.2,412.5,617,408,638s10.4,31.8,33.5,40.8c23.1,9,49.3,10.8,86.2,9.2c39.3-1.7,97-8.5,142.9-18.4
		c43.3-9.3,33.7-7.7,83.7-19.7c48.6-11.7,67.2-15.5,87.5-22.4S916.2,609.1,916.4,609z" />
	<path fill="url(#SVGID_1_)" d="M33.8,557.2l33.7,33.7c101.9,16.9,227.9,7.2,288.6-84.8c4-4.7,7.8-9.6,11.6-14.6c12-30.8,20.1-65.1,5.7-93.6
			c-7.1-17.1-22.3-31.9-36-45.2c-28.7-31-58-51.4-101.5-65.6c19.4-15.6,46.8-16.8,71.1-11.5c29.6-41,38-72.5,1.9-97.4
			c-4.8-4.8-9.7-9.7-14.5-14.5c-8-17.6-42.1-25.3-69.1-21.9C150.5,140,94.7,195.8,93.6,267.9c-0.3,4.8,1.7,9.7,2.7,14.4
			c1.7,26.3,25.2,57.9,48.9,78.4c23.3,26.9,57.8,48,97.1,61.2c-20.5,19.3-42.2,32.5-65.7,39.9c-16.9,12.1-32.1,19.4-48,22.5
			c-17.2,12.5-37.2,20.9-52.3,24.8C55.6,521.8,44.7,538.5,33.8,557.2z" />
	<path fill="url(#SVGID_2_)" stroke="#FFFFFF" stroke-width="6" d="
			M59,549c117.3,16.1,205.9-15.7,265.9-95.3c29.6-81.9-13.7-136.1-129.8-162.5c-8.9-7-15.8-14.6-20.7-22.6
			c23-32.8,54.8-45.9,95.4-39.2c32.4-47.3,22.8-71.7-28.6-72.9c-81.6,8.9-125.5,47.2-131.4,114.9c11.6,60.1,60.8,99.4,147.7,117.9
			c8.1,8.3,12.4,17.6,13,28c-25.8,29.3-54.2,48.9-85,59c-16.5,11.6-32,19.1-46.5,22.4c-1.7,2.2-3.4,3.1-5.1,2.8
			c-18.3,11.2-34.7,18.6-49.1,22.4C73.1,531.7,64.6,540.1,59,549z" />
	<path fill="url(#SVGID_1_)" d="M341.4,434.4l3.3,59.3
			c0.7,1.1,3,3.4,2.5,4.8c1.9,10.3,9.5,45.4,11.8,56.3l33.7,33.7c14.2-5.6,32.1-12.7,42.8-21c0.8-6.9,28.1-64.6,31.5-72.4
			c0,0,0-8.2,0-8.2l2-3.9c2.9-8.8,7.2-39.8,8.7-49.4c13.3,5.8,28.6,8.9,40.3,12.2c3.3,36.8,2.1,75.6,16.8,104.5l0,0l9,20.9
			l33.7,33.7l37.1-47.8c0,0,0.7-2.6,0.7-2.6c3.4-12.8,6.2-19.5,12.6-28.5c2-5.3,5-16.1,6.1-21.7c0,0,2-6.2,2-6.2s5.2-8.5,5.2-8.5
			l3.7-11.1c1.5-22.1,12.8-45,18.9-64.8c0,0-0.1-36.1-0.1-36.1c-5.6-10.1-6.3-14.9-2.8-25.7c0,0,0-8.7,0-8.7
			c3.1-14.6,2.7-25.7,2.6-39c4.9-17.9,1.6-94.6,2.3-113.5l-33.7-33.7c-43.4-40.6-87.8-28.3-104,34c0.3,0.4,13.3,17.5,12.5,17.4
			c0,0,0,11.4,0,11.4l-2.8,8.6c2.5,34.9,0.3,67.8-6.7,95.3c-4.5-0.7-19-2.7-23.8-3.4c-5.7-3-5.7-3.6-12.4-3.3
			c1.2-10,3.4-22,3.6-30.6c0,0,2.8-5.8,2.8-5.8l0-10.4c4.1-28.5,12.2-59.3,7.3-85.1c-9.8-9.9-19.7-19.7-29.5-29.5
			c-21.1-22.8-32.8-27-61.5-25.3c-9.6,13.5-20.6,24.3-33.3,30.8c-0.4,13.7-2,30.4-5.1,40.3c-0.9,1.1-0.5,9.1-0.5,10.5
			c0,0-5.4,22.2-5.4,22.2c0.1,12.9-1.6,17.3-2.6,22.8c-1.3,13.7-2.8,23.7-5.2,33c0,0,0,7.8,0,7.8c-2.4,7.8-3.3,15.5-2.8,23.1
			c-3.1,10.8-4.8,21.2-5.2,31C353.9,379.3,348.2,414.9,341.4,434.4z" />
	<path fill="url(#SVGID_2_)" stroke="#FFFFFF" stroke-width="6" d="
			M357.8,438.5l2.9,52.9c2,2.7,2.9,5.6,2.8,8.5l2.8,13.9l5.3,24.9c9-3.6,16.2-7.3,21.6-11.1l2.7-8.2l26.7-58.6l0-8.5l2.7-5.4
			l2.7-11.3l8-52.9l5.3,2.8l8.2,2.8l5.3,2.8c29,9.1,52.5,14.7,70.4,16.7l0,8.2c6.4,17.2,10,32.1,10.9,44.7
			c-1.4,33.1,3.2,61.9,13.7,86.3l21.5-27.8c2.6-9.5,5.3-17,7.9-22.3l5.4-8.5l2.7-8.2l2.7-11.3l2.7-8.2l5.2-8.5l2.7-8.2
			c1.4-13.3,4-24.5,8.1-33.6l10.6-30.6l0-8.2l-0.1-22.3c-3.2-6.4-5.1-12.9-5.5-19.5l2.7-11.1l0-8.5c1.8-8.8,2.7-16.3,2.7-22.3l0-8.2
			l0-8.5c1.8-8.8,2.7-16.3,2.7-22.3l0-8.2l0-11.3l0-8.2l-0.2-55.7c-35.4-28.9-60.6-20.5-75.6,25.2l8.2,11.1l2.8,5.6l0.1,16.7
			l-2.7,8.2c2.7,41.2-0.9,77.4-10.6,108.7l-18.7-2.8l-18.9-2.6l-5.5-2.8h-8.2l-18.9-8.5l-26.9-11.1l0-11.3c3-10.3,4.8-19.5,5.4-27.8
			c1.7-8.8,2.5-16.3,2.4-22.3l2.7-5.6l0-8.2l2.7-19.5c5.5-21.4,7.3-40.9,5.3-58.6c-10.4-10.6-21.2-15.2-32.4-13.9H427
			c-8.6,11.3-17.6,19.7-26.8,25.2c-0.7,14.3-2.4,26.4-5.3,36.2l0,8.2l-5.4,22.3c-0.1,9.8-1,17.3-2.7,22.3
			c-1.2,13.4-2.9,24.6-5.1,33.4l0,8.2c-2.6,7.7-3.5,15.1-2.7,22.3c-3.3,10.8-5.1,21.1-5.4,30.8l-2.7,19.3
			C367.4,400.9,363,422.3,357.8,438.5z" />
	<path fill="url(#SVGID_1_)" d="M591.4,502.1l33.7,33.4l0,0.3l17.4,14.5
			l31.9,12.9c3.3,1,9.9,3.6,12.7,5.5c6.1,3.1,34.1,10.7,41.1,12.8l22.4,23.4c12-1.6,44.4-5.9,55.8-8.1c20.5,1.8,41.4-1.1,58.3-9.1
			c6.1-14.6,10.1-29,12.5-43.4c0,0-53.2-44.8-57.4-55.2c0,0,1.9-8.7,1.9-8.7l0-12l2.8-15l0-8.7c1-5.1,3.6-15.3,5.2-20.3
			c0,0,0-12.2,0-12.2l2.7-11.5l2.5-32.7c0,0,2.7-12.6,2.7-12.6s0-7.3,0-7.3c3.2-1,8.2-51.8,9-55c47.4-1.1,77.8-21.9,73.9-67.6
			c-7.9-16.8-15.3-29.6-23.7-40.6l-33.7-33.7c-8-4.2-36.6-9.5-45.8-11.3c-7.8,1.3-15.5,1.8-22.9,0.8c0,0-6.3-3.5-6.3-3.5H762
			c-1.4-0.3-12.2-3.7-13.4-2.9c-22.8,1.5-45.6-1-65-7.9c-23,21.5-35.7,49.6-33.6,81.1c7.4,14.1,10.9,28.3,13.1,43l33.7,33.7h19.4
			c-4.6,7.8-7.8,53.9-8.9,63.3c-3.4,5.8-4.7,31.2-5.3,38c0,0-2.7,6.3-2.7,6.3c-0.6,16.6-1.9,33-3.7,45.4c-2.2,0.4-4.2,0.7-6.2,1
			l-32.2-33.6C617.2,424.5,589.4,455.6,591.4,502.1z" />
	<path fill="url(#SVGID_2_)" stroke="#FFFFFF" stroke-width="6" d="
			M607.9,498.3l10.7,8.9l29.7,12.1l8.1,2.9l5.5,2.9l8.1,3.1l62,17.9c2.2,3.4,3.1,7.4,2.7,11.8l21.6-2.9l18.8-3.1
			c19.1,1.6,35.3-0.3,48.4-5.8c3.7-9.5,6.4-18.5,8-26.8c-26.2-16.8-45.1-36.7-56.7-59.6l2.6-12.1l0-11.8l2.8-15l0-8.9l2.6-11.8
			l2.6-8.9l0-11.8l2.8-12.1l2.5-32.6l2.6-12.1l0-8.9l2.8-5.8l7.9-59.6c50.7,1.5,74.9-15.4,72.5-50.7c-6.6-13.8-12.9-24.8-18.9-32.8
			l-8.1-2.9l-29.7-6c-10,1.5-19,1.5-27,0l-5.3-2.9h-8.1h-8.1H763l-10.9-2.9c-23.7,1.3-44.3-0.7-61.8-6c-16.9,17.6-25,38.4-24.2,62.5
			c5.4,11.2,9.1,22.1,11,32.8h8.1c20.4-10,39.2-15,56.5-15l0,8.9c-4.9,19.5-7.6,36.4-7.9,50.7l-5.4,17.9l-5.1,50.7l-2.8,8.9
			l-2.5,29.7l-2.6,6c-0.9,21.4-2.6,39.3-5.3,53.6c-39.7,9.4-60.3,2.4-62-21C622.1,445.4,608.8,468.3,607.9,498.3z" />
	<path fill="url(#SVGID_1_)" d="M841.4,511.1
			c11.7,11.6,20.5,25.7,22.7,40.6l0,0l5.3,31.6l33.7,33.7c14.8-20.9,33.9-49.6,57.5-57.7c1.3-24.7,4.8-49.9,10.8-71.5
			c6.6,13.4,14.2,25,23.1,35.9l33.7,33.7c17.4,4.4,35.4,4.9,52.3-0.3c56.2-75.8,79-160.8,65.9-250.1c8.5-61.2-1.2-108.3-15.6-155.5
			l-33.7-33.7c-3-4.5-6.1-8.9-9.1-13.4c-6,6-12,12-17.9,17.9c-4.1,4.6-8.2,9.3-12.3,13.9c-4.7,11.8-11.3,20.1-20.5,24.7l-9.7,18.1
			l-4.4,14.6c4,7.2,5.6,10.8,3.5,24.7l-27.8-27.7l-0.1-0.5c-22.9-18.6-49.2-26-75.4-15.3c-14.9,11.3-26.8,23.2-34.8,35.6
			c-8.9,21.8-11.2,42.4-11,68.5c-4.1,9.8-7.5,16-12.1,23c0.9,17.6-4.5,48.6-6.8,65.9c-2.4,5.2-4.4,23.3-5.1,29.2
			c0,0,0.1,17.8,0.1,17.8c-0.3,1.3-2.8,8.5-2.4,9.8c0.1,13.5-2.7,22.4-2.3,34C844.4,479.4,842.2,494.6,841.4,511.1z" />
	<path fill="url(#SVGID_2_)" stroke="#FFFFFF" stroke-width="6" d="
			M1089.2,135.2c-0.7-1.6-1.4-3.2-2.1-4.7c-1.3,1.3-2.7,2.6-4.1,3.9c-1.2,1.2-2.5,2.4-3.7,3.5l-7.3,8.1
			c-5.4,12.6-12.7,21.6-21.9,27.1l-7.3,13.5l-2.4,8.1c3.4,6.6,4.3,15.6,2.5,27.1l-4.8,29.8l-2.4,8.1l-2.4,13.5l-2.4,8.1l0,8.1
			l-4.8,21.6c-5.2,16.8-8.5,31.3-9.6,43.3l-4.9-8.1c-2.3-9-4.8-16.2-7.4-21.6L982,256.9c7.4-19.8,9.8-38.8,7.2-56.8
			c-18.9-14.1-37.7-17.7-56.3-10.8c-12.9,9.9-22.6,19.8-29.3,29.8l-4.8,13.5c-3.6,14.9-5.2,32-4.7,51.4c-4,9.9-8.1,18-12.2,24.3
			l0,10.8l-2.4,18.9l-2.4,18.9l-2.4,16.2l-2.4,8.1l-2.4,18.9l0.1,18.9l-2.4,8.1c-0.2,10.4-1,19.4-2.4,27.1l0,8.1
			c-4,17.9-6.4,33.2-7.2,46c12.1,13.1,19.5,27.5,22.2,43.3c11-15,23.2-25.8,36.6-32.5c3-46,13.5-85.7,31.4-119l4.9,8.1l4.9,8.1
			l2.5,5.4l9.8,18.9c7.6,29.2,19.1,53.5,34.5,73c13.3,2.9,25.6,2.9,36.7,0c18.1-23.9,47.5-69.7,59.2-134.3
			c7.6-42.4,5.1-78.6,1.2-103.7C1112.8,213.6,1103,167.7,1089.2,135.2z" />
	<path fill="url(#SVGID_1_)" d="M1405.1,350.8
			c1.1-63.8-21-118.2-67.2-156.9c-26.1-28.7-58.8-51.1-96.4-63.5l-4.8,9.5h-14.5c-8.8,6.6-22.5,12.4-24.5,11.7l-10.1-10.3
			l-25.9,10.5l-15.3,43.3c-1.4-0.3-31.4,44.3-33.1,46.7c-8.2,27.4-24.9,75.7-34.4,103.2c0,0,11.4,37.6,11.4,37.6
			c-6.3,36-4,67.6,6.7,94.1c8.7,23.3,26.7,41,44.4,58.1c15.7,15.9,29.8,30.9,50.5,41.9c11.3,4.5,31.7,7.2,42.4,3.3
			C1326.6,535.8,1396.5,451.3,1405.1,350.8z M1236.2,389.6c-1.2-10.2-1.6-19.3-0.9-27.2l0,0c9-12.3,18.5-33.8,28.9-44.9
			C1263.4,344,1246.9,369.2,1236.2,389.6z" />
	<path fill="url(#SVGID_2_)" stroke="#FFFFFF" stroke-width="6" d="M1250.9,149.6c-1.8,3.5-3.6,5.5-5.4,6.1h-8.1h-8.3c-21.3,14-35.8,15.5-43.5,4.4l-10.4,4.2l-14.2,40.1l-5.4,6.1l-27.2,39.5
			l-2.8,9.2l-8,24.4l-2.8,9l-18.9,54.9l11,36.6c-13.1,69.9,7.1,119.7,60.6,149.4c10.7,3.1,20.7,4.1,30,2.9
			c89.3-43.3,143.8-115.4,163.3-216.2C1355.5,232.1,1318.9,175.3,1250.9,149.6z M1205.5,451.2c-11-25.5-14.7-50.9-11.2-76.1
			c-3.6-19.1-4.6-35.3-3-48.8l8.3-12.2l13.5-24.4c10.1-11.3,17.4-22.6,21.8-33.6c25.3,5.7,40.9,29.1,46.8,70.2
			C1266.3,380.4,1241,422,1205.5,451.2z" />
	<path fill="url(#SVGID_1_)" d="M1586.7,346.6
			c41.5-41.5,51.4-82.3,11-117.8l2.3-7.8l-33.7-33.7c-43.6-30.7-92.5-52.5-137.5-47.9c-28,1.8-46.2,24.8-64.5,42.6
			c0,0,0.1,20.8,0.1,20.8s-2.6,19.1-2.6,19.1s0,0.9,0,0.9c0.1,42-6,78.9-18.4,109.5c-5.8,17.4-4.3,34.5,4.1,49.8c0,0,0,4.4,0,4.4
			l-4.8,10.7c0,10.4-1.5,20-4.9,28c0,0,0.1,22.3,0.1,22.3l-2.4,8.2l0.1,19.5c-2.8,15.5-9.8,33.5-10.6,49.2l33.7,33.7
			c25,17.9,54.1,29.2,81.3,28.8l0,0c11.8,0,23.8-1.8,35.6-5.4c27.8,3.1,57.8-2.6,78.1-17.7c16.7-11.9,29.6-29.6,38.6-52.5
			C1631.9,453.1,1634.4,396.6,1586.7,346.6z M1478.6,430.9c-5,10-11.3,18.2-16.5,21.2c1.2-5.4,2.9-11.5,5.1-18.7
			C1470.2,432.1,1475.4,430.5,1478.6,430.9C1478.6,430.9,1478.6,430.9,1478.6,430.9z" />
	<path fill="url(#SVGID_2_)" stroke="#FFFFFF" stroke-width="6" d="M1536.4,315.3c51.5-46.9,56.4-84.2,14.6-111.9l2.4-8.2c-39.5-27.1-78.2-40.8-116.3-41.1c-23.6,8-42.4,19.8-56.5,35.4l0.1,16.6
			l-2.6,19.1c0.1,44-6.3,82.2-19.3,114.6c-4.5,14.8-2.8,28.5,5.1,41.1l0,10.9l-4.9,10.9c-0.2,10.5-1.8,19.6-4.8,27.5l0.1,21.8
			l-2.4,8.2l0.1,19.1l-4.9,21.8c-2.5,6.3-4.1,12.7-4.9,19.3c33.4,22.1,67.2,27.5,101.2,16.3c52.7,5.9,88-15.1,106.1-62.9
			C1591.3,413,1587,360.2,1536.4,315.3z M1435.2,296.2l0-8.2l2.4-19.3c0.1-11.7,0.9-21.7,2.4-30c59.1-2.1,74,21.6,44.7,71
			c-20.1,7-37.4,10.6-51.9,10.9l0-8.2l2.4-8.2L1435.2,296.2z M1492.5,441c-15.7,31.6-39.5,38.8-71.5,21.8c-9.3-10.9-7.7-34.6,4.7-71
			l7.4-2.7l7.4-2.7c22.1-0.1,41.9-3.8,59.3-10.9C1508.6,399.4,1506.2,421.3,1492.5,441z" />
	<path fill="url(#SVGID_1_)" d="M1569.8,490.3l33.7,33.7l16.7,13.9
			l30.1,12.2c3.1,1,9.2,3.4,11.9,5.1c5.8,2.9,30,9.5,36.6,11.4l22.4,22.7c11.3-1.5,42.6-5.6,53.3-7.7c19.5,1.7,39.3-1.1,55.3-8.8
			c5.9-14,9.7-27.9,12-41.8l-33.7-33.7c-7.4-4.9-16.8-9.2-20.3-17.9c0,0,1.7-7.9,1.7-7.9s0-11.3,0-11.3l2.6-14l0-8.2
			c0.9-4.8,3.4-14.4,4.9-19c0,0,0-11.5,0-11.5l2.5-10.8l2.4-30.7l2.5-11.8c0,0,0-6.7,0-6.7c2.9-1,7.6-48.1,8.4-51
			c44.6-1.1,73.3-21.4,69.5-64.5c-7.5-15.9-14.5-28.1-22.6-38.6l-0.5-0.2l-1-1.4l-0.6-0.2l-1-1.4l-0.6-0.2l-1-1.4l-0.6-0.2l-1-1.4
			l-0.6-0.2l-1-1.4l-0.6-0.2l-1-1.4l-0.6-0.2l-1-1.4l-0.5-0.2l-1-1.4l-0.6-0.2l-1-1.4l-0.6-0.2l-1-1.4l-0.6-0.2l-1-1.4l-0.6-0.2
			l-1-1.4l-0.6-0.2l-1-1.4l-0.6-0.2l-1-1.4l-0.5-0.2l-1-1.4l-0.6-0.2l-1-1.4l-0.6-0.2l-1-1.4l-0.6-0.2l-1-1.4l-0.6-0.2l-1-1.4
			l-0.6-0.2l-1-1.4l-0.6-0.2l-1-1.4c-7.7-4-34.7-9-43.5-10.7c-7.2,1.2-14.4,1.7-21.3,0.7c0,0-5.9-3.3-5.9-3.3h-24.4
			c-1.4-0.3-11.4-3.5-12.8-2.7c-21.5,1.5-42.9-1-61.2-7.5c-22,20.5-34.2,47.2-32.1,77.3c7.1,13.4,10.3,27,12.4,41l33.7,33.7h15.1
			c-5.4,11.8-4.7,53-10.1,64.9c0,0-2.3,27.2-2.3,27.2s-2.6,5.9-2.6,5.9c-0.6,15.3-1.7,30.5-3.4,42.1c-1.4,0.2-2.7,0.5-4,0.6
			l-30.6-31.9C1594.7,416.1,1567.6,445.6,1569.8,490.3z" />
	<path fill="url(#SVGID_2_)" stroke="#FFFFFF" stroke-width="6" d="M1586.2,486.5l10.1,8.4l27.9,11.3l7.6,2.7l5.1,2.7l7.6,2.9l58.2,16.8c2,3.2,2.9,6.9,2.5,11.1l20.3-2.7l17.6-2.9
			c17.9,1.5,33.1-0.3,45.5-5.4c3.5-8.9,6-17.3,7.5-25.1c-24.6-15.8-42.3-34.4-53.2-55.9l2.4-11.3l0-11.1l2.6-14l0-8.4l2.4-11.1
			l2.4-8.4l0-11.1l2.6-11.3l2.4-30.6l2.4-11.3l0-8.4l2.6-5.4l7.4-55.9c47.6,1.4,70.3-14.5,68.1-47.6c-6.2-13-12.1-23.3-17.7-30.8
			l-7.6-2.7l-27.9-5.7c-9.3,1.4-17.8,1.4-25.4,0l-4.9-2.7h-22.7l-10.2-2.7c-22.2,1.3-41.6-0.6-58-5.7c-15.9,16.5-23.4,36-22.7,58.7
			c5.1,10.5,8.5,20.7,10.3,30.8h7.6c19.2-9.4,36.8-14,53-14l0,8.4c-4.6,18.3-7.1,34.2-7.4,47.6l-5.1,16.8l-4.8,47.6l-2.6,8.4
			l-2.4,27.9l-2.4,5.7c-0.8,20.1-2.5,36.9-5,50.3c-37.2,8.8-56.6,2.2-58.2-19.7C1599.6,436.9,1587,458.3,1586.2,486.5z" />
	<path fill="#FF0000" d="M1177.1,661.5l12.4-32.4c7.2-3.1,19-5.7,35.3-7.8c15.5-1.9,27.8-2.9,36.8-2.9l-12.3,32.4
		c-1.5-0.9-4.3-1.4-8.3-1.4c-11,0-25.3,2-43,6.1C1190.3,657.2,1183.3,659.2,1177.1,661.5z" />
	<path fill="#FF0000" d="M1326.2,602.8h25.1l9.6,52l12.2-43.1l25.2-0.2l-22.1,77.1c-3.6,11.6-11.5,17.3-23.7,17.1h-9.3l-6.4-53.6
		l-15.5,53.7l-24.9,0.1L1326.2,602.8z" />
	<path fill="#FF0000" d="M1409.8,612.2h68.8l-4.9,17h-31.2l-4.9,16.9l31.2,0.1l-4.9,17.4h-31l-7.3,25.6c-3.2,11.4-11.1,17-23.6,17
		l-18.6-0.3l5-17.5l6.1,0.1c4,0.1,6.8-2.5,8.3-7.7l4.9-16.9l-12.3-0.2l4.9-17.3h12l5.3-17.1h-12.5L1409.8,612.2z" />
	<path fill="#FF0000" d="M1521.6,637.4l-0.3,0.3l-19.7,68.3h-24.7l19.8-68.6H1478l5.2-17.6h30.9c4,0.1,6.8-2.5,8.3-7.7l2.7-9.2h25.1
		l-5,17.5h0.1l-0.1,0.1C1542,631.8,1534.1,637.4,1521.6,637.4L1521.6,637.4z" />
	<path fill="#FF0000" d="M1574.3,661.5l12.4-32.4c7.2-3.1,19-5.7,35.3-7.8c15.5-1.9,27.8-2.9,36.8-2.9l-12.3,32.4
		c-1.5-0.9-4.3-1.4-8.3-1.4c-11,0-25.3,2-43,6.1C1587.5,657.2,1580.6,659.2,1574.3,661.5z" />
</svg>